<svg width="189" height="51" viewBox="0 0 189 51" fill="none" xmlns="http://www.w3.org/2000/svg">
<mask id="mask0_15_50" style="mask-type:luminance" maskUnits="userSpaceOnUse" x="0" y="0" width="189" height="51">
<path d="M189 0.63158H0V50.3684H189V0.63158Z" fill="white"/>
</mask>
<g mask="url(#mask0_15_50)">
<path d="M49.9176 42.2934H72.8658L49.9176 25.0707V42.2934Z" fill="#EABE49"/>
<path d="M10.0264 25.2988V19.7458L22.5862 8.18317H2.26532V0.63158H33.2694V7.44553L21.3798 18.4045C28.8594 19.8797 34.6768 25.3523 34.6768 33.9775C34.6768 44.0105 26.8621 50.3546 16.9698 50.3546C7.41255 50.3684 0 44.4934 0 33.9239H8.41785C8.41785 39.5442 11.8896 42.7495 17.1038 42.7495C22.4521 42.7495 25.9909 39.2756 25.9909 33.8565C25.9909 28.9074 22.7872 25.2988 15.9645 25.2988H10.0264Z" fill="#31415B"/>
<path d="M42.0895 49.4969V0.631584H59.1933C73.6297 0.631584 83.5755 10.5981 83.5755 25.1649C83.5755 39.5442 73.8174 49.4969 59.6625 49.4969H42.0895ZM50.6414 8.51832V41.6094H58.8582C68.6165 41.6094 74.5546 35.3188 74.5546 25.1649C74.5546 14.7959 68.4691 8.51832 58.3891 8.51832H50.6414Z" fill="#31415B"/>
<path d="M104.821 15.4792C95.1298 15.4792 88.3877 22.629 88.3877 32.9835C88.3877 33.4128 88.4007 33.842 88.4275 34.2713H120.987V32.3935C120.987 22.0919 114.714 15.4792 104.821 15.4792ZM96.3364 29.7108C97.1269 24.7616 100.076 22.1592 104.888 22.1592C109.767 22.1592 112.904 25.1641 112.904 29.7108H96.3364ZM113.574 38.805C113.561 38.8188 113.561 38.8318 113.561 38.8456C112.623 41.9576 109.687 43.6876 105.237 43.6876C101.215 43.6876 98.4943 42.0647 97.1139 38.8456H89.2317C91.3497 45.847 97.3013 50.3677 105.102 50.3677C113.708 50.3677 119.714 46.0482 121.134 38.8456C121.134 38.8318 121.147 38.8188 121.147 38.805H113.574Z" fill="#31415B"/>
<path d="M142.031 15.4792C132.34 15.4792 125.598 22.629 125.598 32.9835C125.598 33.4128 125.611 33.842 125.638 34.2713H158.197V32.3935C158.197 22.0919 151.923 15.4792 142.031 15.4792ZM133.559 29.7108C134.351 24.7616 137.3 22.1592 142.111 22.1592C146.991 22.1592 150.127 25.1641 150.127 29.7108H133.559ZM150.784 38.805C150.771 38.8188 150.771 38.8318 150.771 38.8456C149.833 41.9576 146.897 43.6876 142.446 43.6876C138.425 43.6876 135.704 42.0647 134.324 38.8456H126.442C128.56 45.847 134.511 50.3677 142.312 50.3677C150.918 50.3677 156.924 46.0482 158.344 38.8456C158.344 38.8318 158.357 38.8188 158.357 38.805H150.784Z" fill="#31415B"/>
<path d="M162.352 16.4732V23.3001H178.786L169.536 34.2728H179.522L188.999 23.2335V16.4862H162.352V16.4732ZM172.298 42.6829L175.595 38.8463H165.69L162.352 42.8168V49.4969H188.999V42.6829H172.298Z" fill="#31415B"/>
</g>
</svg>
